M48
; DRILL file {KiCad 9.0.3} date 2025-09-07T22:44:00+0900
; FORMAT={-:-/ absolute / metric / decimal}
; #@! TF.CreationDate,2025-09-07T22:44:00+09:00
; #@! TF.GenerationSoftware,Kicad,Pcbnew,9.0.3
; #@! TF.FileFunction,Plated,1,2,PTH
FMAT,2
METRIC
; #@! TA.AperFunction,Plated,PTH,ViaDrill
T1C0.300
; #@! TA.AperFunction,Plated,PTH,ComponentDrill
T2C0.800
; #@! TA.AperFunction,Plated,PTH,ComponentDrill
T3C0.900
; #@! TA.AperFunction,Plated,PTH,ComponentDrill
T4C1.000
; #@! TA.AperFunction,Plated,PTH,ComponentDrill
T5C1.100
%
G90
G05
T1
X96.52Y-126.746
X96.647Y-28.448
X96.647Y-36.576
X96.647Y-41.021
X96.647Y-46.101
X96.647Y-51.181
X96.647Y-56.261
X96.647Y-61.341
X96.647Y-66.421
X96.647Y-71.501
X100.965Y-76.581
X103.443Y-53.086
X104.0Y-112.0
X105.283Y-76.581
X105.75Y-121.751
X106.175Y-122.5
X106.175Y-123.3
X106.175Y-124.1
X106.5Y-84.381
X106.68Y-80.645
X106.68Y-126.746
X106.689Y-125.245
X107.795Y-121.076
X108.839Y-56.769
X108.87Y-124.675
X109.347Y-62.958
X109.474Y-53.721
X110.364Y-63.634
X110.648Y-124.675
X111.76Y-126.746
X112.903Y-83.058
X113.112Y-121.751
X113.157Y-80.645
X113.928Y-104.487
X115.5Y-64.5
X115.5Y-111.5
X115.5Y-112.5
X116.175Y-105.624
X116.25Y-121.076
X116.5Y-104.055
X116.84Y-126.746
X117.0Y-85.395
X117.5Y-58.5
X117.75Y-84.5
X118.872Y-112.5
X119.0Y-120.401
X119.5Y-57.5
X119.888Y-64.262
X121.666Y-54.356
X121.92Y-126.746
X122.0Y-52.675
X122.0Y-124.75
X125.112Y-121.751
X125.4Y-55.254
X125.5Y-63.675
X126.238Y-58.0
X126.75Y-102.0
X127.0Y-126.746
X127.5Y-111.325
X127.5Y-113.0
X128.0Y-102.676
X128.5Y-105.624
X128.75Y-121.076
X129.25Y-39.0
X129.668Y-97.832
X130.302Y-56.642
X131.0Y-63.0
X131.175Y-120.0
X131.5Y-112.124
X132.0Y-62.175
X132.08Y-126.746
X133.0Y-57.0
X133.25Y-124.675
X134.5Y-29.601
X135.75Y-121.751
X136.652Y-56.642
X137.16Y-126.746
X137.925Y-72.0
X138.215Y-94.25
X138.43Y-62.738
X138.754Y-101.746
X138.9Y-95.0
X139.575Y-95.5
X139.575Y-101.88
X139.75Y-113.25
X140.0Y-121.0
X140.25Y-105.5
X140.5Y-124.0
X141.0Y-30.5
X141.96Y-113.403
X142.24Y-126.746
X142.5Y-82.0
X142.675Y-112.728
X142.75Y-110.0
X144.25Y-98.825
X144.5Y-124.675
X147.0Y-99.825
X147.32Y-126.746
X147.75Y-121.75
X149.0Y-71.0
X150.5Y-100.5
X151.892Y-112.691
X152.25Y-73.0
X152.4Y-126.746
X152.75Y-105.25
X153.0Y-121.076
X153.924Y-113.675
X155.0Y-98.825
X155.175Y-112.691
X155.175Y-119.207
X155.25Y-110.5
X155.75Y-124.75
X156.083Y-76.581
X156.375Y-101.875
X157.304Y-71.446
X157.381Y-101.618
X157.48Y-126.746
X159.425Y-121.75
X159.75Y-116.5
X161.163Y-76.581
X162.5Y-126.8
X163.5Y-113.0
X163.5Y-121.0
X164.0Y-100.1
X164.25Y-102.825
X164.25Y-105.277
X164.25Y-123.175
X164.738Y-102.15
X165.96Y-105.252
X165.96Y-113.675
X166.75Y-100.1
X166.75Y-102.825
X166.878Y-76.701
X167.25Y-110.25
X167.5Y-113.0
X167.64Y-126.746
X168.0Y-124.75
X168.148Y-81.28
X170.434Y-101.346
X171.323Y-76.581
X171.675Y-121.675
X172.72Y-126.746
X174.0Y-102.5
X175.25Y-103.325
X175.5Y-113.0
X175.75Y-101.825
X176.0Y-105.25
X176.25Y-126.8
X176.403Y-76.581
X176.5Y-121.0
X177.8Y-126.746
X178.25Y-113.675
X179.0Y-110.5
X180.0Y-113.0
X180.5Y-124.75
X180.812Y-104.987
X181.483Y-76.581
X182.88Y-126.746
X183.425Y-121.675
X186.0Y-102.5
X186.401Y-121.025
X186.563Y-76.581
X186.639Y-103.325
X187.5Y-113.0
X187.96Y-126.746
X188.25Y-102.5
X191.25Y-113.0
X194.0Y-81.0
X194.0Y-86.08
X194.0Y-91.16
X194.0Y-96.24
X194.0Y-100.574
X194.31Y-35.941
X194.31Y-41.021
X194.31Y-46.101
X194.31Y-51.181
X194.31Y-56.261
X194.31Y-61.341
X194.31Y-66.421
X194.31Y-71.501
X194.564Y-116.586
X194.564Y-121.666
T2
X97.5Y-87.92
X97.5Y-98.08
X100.5Y-87.92
X100.5Y-98.08
X101.0Y-38.5
X101.0Y-43.5
X103.5Y-87.92
X103.5Y-98.08
X104.52Y-36.5
X104.52Y-44.12
X106.5Y-87.92
X106.5Y-98.08
X107.06Y-36.5
X107.06Y-44.12
X109.5Y-87.92
X109.5Y-98.08
X109.6Y-36.5
X109.6Y-44.12
X112.14Y-36.5
X112.14Y-44.12
X112.5Y-87.92
X112.5Y-98.08
X114.68Y-36.5
X114.68Y-44.12
X115.5Y-87.92
X115.5Y-98.08
X117.22Y-36.5
X117.22Y-44.12
X118.5Y-87.92
X118.5Y-98.08
X119.76Y-36.5
X119.76Y-44.12
X121.5Y-87.92
X121.5Y-98.08
X122.3Y-36.5
X122.3Y-44.12
X124.5Y-87.92
X124.5Y-98.08
X124.84Y-36.5
X124.84Y-44.12
X127.5Y-87.92
X127.5Y-98.08
X127.96Y-38.0
X127.96Y-43.0
X131.42Y-36.5
X131.42Y-44.12
X133.96Y-36.5
X133.96Y-44.12
X136.5Y-36.5
X136.5Y-44.12
X139.04Y-36.5
X139.04Y-44.12
X141.58Y-36.5
X141.58Y-44.12
X144.12Y-36.5
X144.12Y-44.12
X145.92Y-81.0
X145.92Y-84.0
X145.92Y-87.0
X145.92Y-90.0
X145.92Y-93.0
X145.92Y-96.0
X146.66Y-36.5
X146.66Y-44.12
X149.2Y-36.5
X149.2Y-44.12
X151.74Y-36.5
X151.74Y-44.12
X155.5Y-39.5
X155.5Y-44.5
X156.08Y-81.0
X156.08Y-84.0
X156.08Y-87.0
X156.08Y-90.0
X156.08Y-93.0
X156.08Y-96.0
X158.88Y-36.92
X158.88Y-39.46
X158.88Y-42.0
X158.88Y-44.54
X158.88Y-47.08
X158.88Y-49.62
X158.88Y-52.16
X158.88Y-54.7
X158.88Y-57.24
X160.5Y-61.0
X162.92Y-80.3
X162.92Y-83.3
X162.92Y-86.3
X162.92Y-89.3
X162.92Y-92.3
X162.92Y-95.3
X162.92Y-98.3
X162.92Y-101.3
X164.0Y-29.837
X164.0Y-32.337
X165.5Y-61.0
X166.5Y-36.92
X166.5Y-39.46
X166.5Y-42.0
X166.5Y-44.54
X166.5Y-47.08
X166.5Y-49.62
X166.5Y-52.16
X166.5Y-54.7
X166.5Y-57.24
X171.5Y-61.0
X171.5Y-63.5
X173.08Y-80.3
X173.08Y-83.3
X173.08Y-86.3
X173.08Y-89.3
X173.08Y-92.3
X173.08Y-95.3
X173.08Y-98.3
X173.08Y-101.3
X177.42Y-61.0
X177.42Y-64.008
X177.42Y-67.0
X187.58Y-61.0
X187.58Y-64.008
X187.58Y-67.0
T3
X100.437Y-110.74
X100.437Y-113.329
X101.731Y-108.499
X101.731Y-115.57
X103.973Y-107.205
X103.973Y-116.864
X106.561Y-107.205
X106.561Y-116.864
X108.803Y-108.499
X108.803Y-115.57
X110.097Y-110.74
X110.097Y-113.329
X112.437Y-110.74
X112.437Y-113.329
X113.731Y-108.499
X113.731Y-115.57
X115.973Y-107.205
X115.973Y-116.864
X118.561Y-107.205
X118.561Y-116.864
X120.803Y-108.499
X120.803Y-115.57
X122.097Y-110.74
X122.097Y-113.329
X124.437Y-110.74
X124.437Y-113.329
X125.731Y-108.499
X125.731Y-115.57
X127.973Y-107.205
X127.973Y-116.864
X130.561Y-107.205
X130.561Y-116.864
X132.803Y-108.499
X132.803Y-115.57
X134.097Y-110.74
X134.097Y-113.329
X136.437Y-110.74
X136.437Y-113.329
X137.731Y-108.499
X137.731Y-115.57
X139.973Y-107.205
X139.973Y-116.864
X142.561Y-107.205
X142.561Y-116.864
X144.803Y-108.499
X144.803Y-115.57
X146.097Y-110.74
X146.097Y-113.329
X148.437Y-110.74
X148.437Y-113.329
X149.731Y-108.499
X149.731Y-115.57
X151.973Y-107.205
X151.973Y-116.864
X154.561Y-107.205
X154.561Y-116.864
X156.803Y-108.499
X156.803Y-115.57
X158.097Y-110.74
X158.097Y-113.329
X160.437Y-110.74
X160.437Y-113.329
X161.731Y-108.499
X161.731Y-115.57
X163.973Y-107.205
X163.973Y-116.864
X166.561Y-107.205
X166.561Y-116.864
X168.803Y-108.499
X168.803Y-115.57
X170.097Y-110.74
X170.097Y-113.329
X172.437Y-110.74
X172.437Y-113.329
X173.731Y-108.499
X173.731Y-115.57
X175.973Y-107.205
X175.973Y-116.864
X178.561Y-107.205
X178.561Y-116.864
X180.803Y-108.499
X180.803Y-115.57
X182.097Y-110.74
X182.097Y-113.329
X184.437Y-110.74
X184.437Y-113.329
X185.731Y-108.499
X185.731Y-115.57
X187.973Y-107.205
X187.973Y-116.864
X190.561Y-107.205
X190.561Y-116.864
X192.803Y-108.499
X192.803Y-115.57
X194.097Y-110.74
X194.097Y-113.329
T4
X98.84Y-48.61
X98.84Y-66.39
X101.38Y-48.61
X101.38Y-66.39
X103.92Y-48.61
X103.92Y-66.39
X106.46Y-48.61
X106.46Y-66.39
X108.5Y-74.5
X109.0Y-48.61
X109.0Y-66.39
X111.54Y-48.61
X111.54Y-66.39
X112.0Y-74.5
X114.08Y-48.61
X114.08Y-66.39
X115.5Y-30.5
X115.5Y-33.04
X115.5Y-74.5
X115.5Y-80.5
X115.5Y-83.04
X116.62Y-48.61
X116.62Y-66.39
X118.04Y-30.5
X118.04Y-33.04
X118.04Y-80.5
X118.04Y-83.04
X119.0Y-74.5
X119.16Y-48.61
X119.16Y-66.39
X120.58Y-30.5
X120.58Y-33.04
X120.58Y-80.5
X120.58Y-83.04
X121.7Y-48.61
X121.7Y-66.39
X122.5Y-74.5
X123.12Y-30.5
X123.12Y-33.04
X123.12Y-80.5
X123.12Y-83.04
X124.24Y-48.61
X124.24Y-66.39
X125.66Y-30.5
X125.66Y-33.04
X125.66Y-80.5
X125.66Y-83.04
X126.0Y-74.5
X126.78Y-48.61
X126.78Y-66.39
X128.2Y-30.5
X128.2Y-33.04
X128.2Y-80.5
X128.2Y-83.04
X129.32Y-48.61
X129.32Y-66.39
X129.5Y-74.5
X130.74Y-30.5
X130.74Y-33.04
X130.74Y-80.5
X130.74Y-83.04
X131.86Y-48.61
X131.86Y-66.39
X133.0Y-74.5
X133.28Y-30.5
X133.28Y-33.04
X133.28Y-80.5
X133.28Y-83.04
X134.4Y-48.61
X134.4Y-66.39
X135.82Y-30.5
X135.82Y-33.04
X135.82Y-80.5
X135.82Y-83.04
X136.5Y-74.5
X136.94Y-48.61
X136.94Y-66.39
X138.36Y-30.5
X138.36Y-33.04
X138.36Y-80.5
X138.36Y-83.04
X139.48Y-48.61
X139.48Y-66.39
X140.0Y-74.5
X142.02Y-48.61
X142.02Y-66.39
X143.5Y-74.5
X144.56Y-48.61
X144.56Y-66.39
X147.1Y-48.61
X147.1Y-66.39
X169.802Y-29.524
X169.818Y-56.819
X175.452Y-82.804
X175.452Y-87.884
X175.452Y-98.044
X175.514Y-80.264
X175.514Y-85.344
X175.514Y-90.424
X175.514Y-92.964
X175.514Y-95.504
X178.054Y-80.264
X178.054Y-82.804
X178.054Y-85.344
X178.054Y-87.884
X178.054Y-90.424
X178.054Y-92.964
X178.054Y-95.504
X178.054Y-98.044
X180.594Y-80.264
X180.594Y-82.804
X180.594Y-85.344
X180.594Y-87.884
X180.594Y-90.424
X180.594Y-92.964
X180.594Y-95.504
X180.594Y-98.044
X183.134Y-80.264
X183.134Y-82.804
X183.134Y-85.344
X183.134Y-87.884
X183.134Y-90.424
X183.134Y-92.964
X183.134Y-95.504
X183.134Y-98.044
X185.241Y-29.539
X185.251Y-56.858
X185.674Y-80.264
X185.674Y-82.804
X185.674Y-85.344
X185.674Y-87.884
X185.674Y-90.424
X185.674Y-92.964
X185.674Y-95.504
X185.674Y-98.044
X188.214Y-87.884
X188.214Y-90.424
X188.214Y-92.964
X188.214Y-95.504
X188.214Y-98.044
X190.754Y-87.884
X190.754Y-90.424
X190.754Y-92.964
X190.754Y-95.504
X190.754Y-98.044
T5
X159.25Y-70.75
X159.25Y-75.25
X165.75Y-70.75
X165.75Y-75.25
X168.75Y-70.75
X168.75Y-75.25
X175.25Y-70.75
X175.25Y-75.25
X178.25Y-70.75
X178.25Y-75.25
X184.75Y-70.75
X184.75Y-75.25
M30
